<svg width="109" height="18" viewBox="0 0 109 18" fill="none" xmlns="http://www.w3.org/2000/svg">
<g clip-path="url(#clip0_8124_96168)">
<path d="M99.9914 14.2768C97.6532 14.2768 95.5755 12.6003 95.0404 10.2855H108.923C108.923 10.2855 108.997 9.44679 108.997 9.15008C108.997 4.23709 104.958 0.239063 99.9939 0.239063C95.0295 0.239063 90.9905 4.23627 90.9905 9.15008C90.9905 14.064 95.0069 17.9683 99.9939 17.9683C104.981 17.9683 107.893 14.3324 108.62 11.7002H104.388C104.388 11.7002 103.042 14.2768 99.9914 14.2768ZM99.9939 3.92879C102.236 3.92879 104.182 5.39407 104.849 7.57789H95.1391C95.8034 5.39407 97.7504 3.92879 99.9939 3.92879Z" fill="#9391F7"/>
<path d="M47.017 17.9683C42.0526 17.9683 38.1584 14.0125 38.1584 9.15008C38.1584 4.28765 42.1975 0.239063 47.1619 0.239063C52.1264 0.239063 56.1654 4.39373 56.1654 9.10284C56.1654 11.1093 56.1654 17.5266 56.1654 17.5266H52.6698V14.7153L52.4153 14.649C51.7998 16.1425 49.5696 17.9683 47.0162 17.9683H47.017ZM47.1619 3.92879C44.3581 3.92879 42.076 6.25848 42.076 9.12274C42.076 11.987 44.3573 14.2778 47.1619 14.2778C49.9666 14.2778 52.2478 11.9654 52.2478 9.12274C52.2478 6.28003 49.9666 3.92879 47.1619 3.92879Z" fill="#9391F7"/>
<path d="M66.1457 17.9683C61.1812 17.9683 57.287 14.0125 57.287 9.15008C57.287 4.28765 61.3261 0.239063 66.2905 0.239063C71.2549 0.239063 75.294 4.39373 75.294 9.10284C75.294 11.1093 75.294 17.5266 75.294 17.5266H71.7985V14.7153L71.5439 14.649C70.9283 16.1425 68.6982 17.9683 66.1448 17.9683H66.1457ZM66.2905 3.92879C63.4868 3.92879 61.2047 6.25848 61.2047 9.12274C61.2047 11.987 63.4859 14.2778 66.2905 14.2778C69.0952 14.2778 71.3764 11.9654 71.3764 9.12274C71.3764 6.28003 69.0952 3.92879 66.2905 3.92879Z" fill="#9391F7"/>
<path d="M81.1619 17.5174L73.9874 0.674999H77.9126L83.171 13.0818L88.4303 0.674999H92.3545L85.1809 17.5174H81.1619Z" fill="#9391F7"/>
<path d="M12.7614 17.9372C14.7136 17.9372 16.2962 16.3709 16.2962 14.4389C16.2962 12.5069 14.7136 10.9406 12.7614 10.9406C10.8091 10.9406 9.22644 12.5069 9.22644 14.4389C9.22644 16.3709 10.8091 17.9372 12.7614 17.9372Z" fill="#9391F7"/>
<path d="M22.0018 17.9372C23.9541 17.9372 25.5367 16.3709 25.5367 14.4389C25.5367 12.5069 23.9541 10.9406 22.0018 10.9406C20.0496 10.9406 18.4669 12.5069 18.4669 14.4389C18.4669 16.3709 20.0496 17.9372 22.0018 17.9372Z" fill="#9391F7"/>
<path d="M17.3772 0C7.77913 0 -0.00251176 7.8477 6.08184e-07 17.5254H4.43935C4.43935 10.2727 10.186 4.39252 17.3772 4.39252C24.5684 4.39252 30.3151 10.2727 30.3151 17.5254H34.7544C34.7561 7.8477 26.9744 0 17.3772 0Z" fill="#9391F7"/>
</g>
<defs>
<clipPath id="clip0_8124_96168">
<rect width="109" height="18" fill="white"/>
</clipPath>
</defs>
</svg>
