<svg width="100" height="100" viewBox="0 0 100 100" fill="none" xmlns="http://www.w3.org/2000/svg">
<path d="M98.5016 62.1017C91.8229 88.8901 64.6908 105.193 37.8994 98.5128C11.1189 91.8341 -5.18411 64.7004 1.49773 37.9137C8.17332 11.1222 35.3054 -5.18234 62.089 1.49638C88.8789 8.17509 105.18 35.3119 98.5016 62.1017Z" fill="#F7931A"/>
<path d="M72.0456 42.8808C73.041 36.2271 67.975 32.6502 61.0478 30.264L63.2949 21.2507L57.8084 19.8834L55.6207 28.6592C54.1784 28.2998 52.697 27.9607 51.225 27.6247L53.4284 18.7911L47.9451 17.4238L45.6964 26.434C44.5026 26.1621 43.3306 25.8933 42.193 25.6105L42.1992 25.5824L34.6329 23.6931L33.1734 29.553C33.1734 29.553 37.2441 30.4859 37.1582 30.5437C39.3802 31.0985 39.7818 32.5689 39.7146 33.7346L37.155 44.0027C37.3082 44.0418 37.5066 44.0981 37.7254 44.1856C37.5426 44.1403 37.3472 44.0903 37.1457 44.0418L33.5578 58.4259C33.2859 59.101 32.5968 60.1135 31.0436 59.7291C31.0983 59.8088 27.0557 58.7337 27.0557 58.7337L24.332 65.014L31.4717 66.7938C32.8 67.1267 34.1016 67.4751 35.383 67.8033L33.1125 76.9197L38.5927 78.287L40.8413 69.2675C42.3383 69.6738 43.7916 70.0488 45.2136 70.402L42.9727 79.3793L48.4592 80.7466L50.7297 71.6474C60.0852 73.4179 67.1202 72.7037 70.0814 64.242C72.4675 57.4289 69.9626 53.4989 65.0403 50.9362C68.625 50.1095 71.3253 47.7515 72.0456 42.8808ZM59.5102 60.4589C57.8147 67.272 46.3434 63.5889 42.6243 62.6653L45.637 50.5877C49.3561 51.5159 61.2822 53.3536 59.5102 60.4589ZM61.2072 42.7823C59.6602 48.9797 50.1124 45.831 47.0153 45.0591L49.7468 34.105C52.8439 34.8769 62.8183 36.3177 61.2072 42.7823Z" fill="white"/>
</svg>
